# xmcd
#
# Track frame offsets:
#  150
#  17618
#  31593
#  47232
#  62666
#  77994
#  95032
#  110592
#  130041
#  145890
#  162747
#  178430
#  192472
#  208648
#  221755
#  238147
#  251813
#  266712
#  281624
#  299202
#
# Disc length: 4189 seconds
#
# Revision: 0
# Processed by: cddbd v1.5.2PL0 Copyright (c) Steve Scherf et al.
# Submitted via: AltoMP3_Maker 3.0
#
DISCID=49105b14
DTITLE=Varios - Schlager Marathon 2009 CD2
DYEAR=1900
DGENRE=
TTITLE0=Cowboy und Indianer (2005)
TTITLE1=Dschingis Khan
TTITLE2=Jetzt will ich leben
TTITLE3=Dieses Parfüm auf deiner Haut
TTITLE4=Gefühl ist eine Achterbahn
TTITLE5=Du weißt, dass ich dich liebe
TTITLE6=Nimm mich einfach in den Arm (so wie früher)
TTITLE7=Jenseits von Eden
TTITLE8=Und ich dachte, es ist Liebe
TTITLE9=Cèst ca la vie 
TTITLE10=Lass uns mal wieder tanzen geh`n
TTITLE11=Arrivederci Hans
TTITLE12=Plötzlich war`s Liebe
TTITLE13=Für alle
TTITLE14=Coconut and Calypso
TTITLE15=Der letzte Zug Cara Mia
TTITLE16=Wie ein Liebeslied
TTITLE17=Verde
TTITLE18=Schlager-Medley
TTITLE19=Wahre Liebe
EXTD=
EXTT0=
EXTT1=
EXTT2=
EXTT3=
EXTT4=
EXTT5=
EXTT6=
EXTT7=
EXTT8=
EXTT9=
EXTT10=
EXTT11=
EXTT12=
EXTT13=
EXTT14=
EXTT15=
EXTT16=
EXTT17=
EXTT18=
EXTT19=
PLAYORDER=
